<?xml version="1.0" encoding="UTF-8"?>
<svg id="Layer_2" xmlns="http://www.w3.org/2000/svg" viewBox="0 0 627.17 90.08">
  <defs>
    <style>
      .cls-1 {
        fill: #393b59;
      }

      .cls-2 {
        fill: #8493bf;
      }
    </style>
  </defs>
  <g id="Layer_1-2" data-name="Layer_1">
    <g>
      <g>
        <polygon class="cls-2" points="106.23 66.97 106.23 33.22 110.83 33.22 124.51 55.11 121.87 55.11 135.51 33.22 140.11 33.22 140.11 66.97 133.59 66.97 133.59 44.46 134.88 44.79 125.43 60.06 120.91 60.06 111.51 44.79 112.75 44.46 112.75 66.97 106.23 66.97"/>
        <path class="cls-2" d="M162.72,43.78v2.21c-.64-.67-1.39-1.24-2.26-1.68-1.31-.67-2.78-1.01-4.42-1.01-2.14,0-4.06.53-5.74,1.58s-3,2.5-3.96,4.32c-.96,1.82-1.44,3.89-1.44,6.19s.48,4.32,1.44,6.14c.96,1.82,2.28,3.26,3.96,4.32s3.58,1.58,5.69,1.58c1.66,0,3.16-.34,4.49-1.01.86-.44,1.6-1,2.23-1.66v2.19h6.34v-23.18h-6.34ZM161.47,59.86c-1.09,1.18-2.51,1.78-4.27,1.78-1.12,0-2.13-.27-3.02-.82-.9-.54-1.59-1.28-2.09-2.21-.5-.93-.74-2.02-.74-3.26s.25-2.29.74-3.22c.5-.93,1.18-1.66,2.06-2.21.88-.54,1.9-.82,3.05-.82s2.21.26,3.07.79,1.55,1.27,2.06,2.23.77,2.05.77,3.26c0,1.79-.54,3.28-1.63,4.46Z"/>
        <path class="cls-2" d="M189.86,43.86c-.88-.37-1.9-.55-3.05-.55-2.59,0-4.58.82-5.95,2.47-.02.02-.03.05-.05.07v-2.06h-6.29v23.18h6.29v-12.77c0-1.76.42-3.06,1.27-3.89s1.94-1.25,3.29-1.25c.64,0,1.21.09,1.7.26.5.18.92.47,1.27.89l3.94-4.56c-.74-.83-1.54-1.43-2.42-1.8Z"/>
        <path class="cls-2" d="M197.67,40.04c-1.02,0-1.87-.34-2.54-1.03-.67-.69-1.01-1.54-1.01-2.57s.34-1.84,1.01-2.54c.67-.7,1.52-1.06,2.54-1.06s1.91.35,2.57,1.06c.66.7.98,1.55.98,2.54s-.33,1.88-.98,2.57c-.66.69-1.51,1.03-2.57,1.03ZM194.45,66.97v-23.18h6.38v23.18h-6.38Z"/>
        <path class="cls-2" d="M214.42,67.5c-1.34,0-2.65-.17-3.91-.5-1.26-.34-2.42-.83-3.48-1.49-1.06-.66-1.97-1.43-2.74-2.33l3.79-3.79c.77.93,1.68,1.62,2.74,2.06,1.06.45,2.21.67,3.46.67,1.02,0,1.81-.15,2.35-.46.54-.3.82-.73.82-1.27,0-.64-.29-1.13-.86-1.46s-1.3-.63-2.18-.89c-.88-.26-1.82-.53-2.81-.82s-1.93-.68-2.81-1.18c-.88-.5-1.61-1.19-2.18-2.09-.58-.9-.86-2.05-.86-3.46s.37-2.76,1.1-3.86,1.78-1.95,3.12-2.54c1.34-.59,2.93-.89,4.75-.89,1.92,0,3.66.33,5.21.98,1.55.66,2.84,1.66,3.86,3l-3.79,3.84c-.7-.83-1.5-1.45-2.38-1.85-.88-.4-1.82-.6-2.81-.6s-1.68.14-2.16.43c-.48.29-.72.69-.72,1.2,0,.58.27,1.02.82,1.32.54.3,1.26.58,2.16.84.9.26,1.83.54,2.81.84.98.3,1.9.73,2.78,1.27.88.54,1.6,1.26,2.16,2.16.56.9.84,2.05.84,3.46,0,2.27-.82,4.07-2.45,5.4-1.63,1.33-3.84,1.99-6.62,1.99Z"/>
        <path class="cls-2" d="M235.73,67.5c-1.34,0-2.65-.17-3.91-.5-1.26-.34-2.42-.83-3.48-1.49-1.06-.66-1.97-1.43-2.74-2.33l3.79-3.79c.77.93,1.68,1.62,2.74,2.06,1.06.45,2.21.67,3.46.67,1.02,0,1.81-.15,2.35-.46.54-.3.82-.73.82-1.27,0-.64-.29-1.13-.86-1.46s-1.3-.63-2.18-.89c-.88-.26-1.82-.53-2.81-.82s-1.93-.68-2.81-1.18c-.88-.5-1.61-1.19-2.18-2.09-.58-.9-.86-2.05-.86-3.46s.37-2.76,1.1-3.86,1.78-1.95,3.12-2.54c1.34-.59,2.93-.89,4.75-.89,1.92,0,3.66.33,5.21.98,1.55.66,2.84,1.66,3.86,3l-3.79,3.84c-.7-.83-1.5-1.45-2.38-1.85-.88-.4-1.82-.6-2.81-.6s-1.68.14-2.16.43c-.48.29-.72.69-.72,1.2,0,.58.27,1.02.82,1.32.54.3,1.26.58,2.16.84.9.26,1.83.54,2.81.84.98.3,1.9.73,2.78,1.27.88.54,1.6,1.26,2.16,2.16.56.9.84,2.05.84,3.46,0,2.27-.82,4.07-2.45,5.4-1.63,1.33-3.84,1.99-6.62,1.99Z"/>
        <path class="cls-2" d="M265.39,43.78v2.21c-.64-.67-1.39-1.24-2.26-1.68-1.31-.67-2.78-1.01-4.42-1.01-2.14,0-4.06.53-5.74,1.58s-3,2.5-3.96,4.32c-.96,1.82-1.44,3.89-1.44,6.19s.48,4.32,1.44,6.14c.96,1.82,2.28,3.26,3.96,4.32s3.58,1.58,5.69,1.58c1.66,0,3.16-.34,4.49-1.01.86-.44,1.6-1,2.23-1.66v2.19h6.34v-23.18h-6.34ZM264.15,59.86c-1.09,1.18-2.51,1.78-4.27,1.78-1.12,0-2.13-.27-3.02-.82-.9-.54-1.59-1.28-2.09-2.21-.5-.93-.74-2.02-.74-3.26s.25-2.29.74-3.22c.5-.93,1.18-1.66,2.06-2.21.88-.54,1.9-.82,3.05-.82s2.21.26,3.07.79,1.55,1.27,2.06,2.23.77,2.05.77,3.26c0,1.79-.54,3.28-1.63,4.46Z"/>
        <path class="cls-2" d="M302.93,67.5c-2.5,0-4.8-.45-6.91-1.34-2.11-.9-3.96-2.14-5.54-3.72s-2.81-3.43-3.67-5.54c-.86-2.11-1.3-4.38-1.3-6.82s.43-4.7,1.3-6.82c.86-2.11,2.08-3.95,3.65-5.52s3.41-2.8,5.52-3.7c2.11-.9,4.4-1.34,6.86-1.34,2.75,0,5.14.44,7.18,1.32,2.03.88,3.83,2.07,5.4,3.58l-4.46,4.46c-.93-1.02-2.06-1.82-3.41-2.4s-2.91-.86-4.7-.86c-1.54,0-2.95.26-4.25.79-1.3.53-2.42,1.3-3.38,2.3-.96,1.01-1.7,2.21-2.21,3.6s-.77,2.92-.77,4.58.26,3.24.77,4.63c.51,1.39,1.25,2.58,2.21,3.58.96.99,2.09,1.76,3.38,2.3,1.3.54,2.73.82,4.3.82,1.89,0,3.5-.3,4.85-.89,1.34-.59,2.5-1.4,3.46-2.42l4.46,4.46c-1.6,1.54-3.45,2.74-5.54,3.62-2.1.88-4.49,1.32-7.18,1.32Z"/>
        <path class="cls-2" d="M334.82,43.86c-.88-.37-1.9-.55-3.05-.55-2.59,0-4.58.82-5.95,2.47-.02.02-.03.05-.05.07v-2.06h-6.29v23.18h6.29v-12.77c0-1.76.42-3.06,1.27-3.89s1.94-1.25,3.29-1.25c.64,0,1.21.09,1.7.26.5.18.92.47,1.27.89l3.94-4.56c-.74-.83-1.54-1.43-2.42-1.8Z"/>
        <path class="cls-2" d="M349.68,67.5c-2.34,0-4.44-.54-6.31-1.61-1.87-1.07-3.35-2.53-4.44-4.37-1.09-1.84-1.63-3.91-1.63-6.22s.54-4.31,1.63-6.12c1.09-1.81,2.57-3.25,4.44-4.32,1.87-1.07,3.98-1.61,6.31-1.61s4.49.53,6.36,1.58,3.36,2.5,4.46,4.32c1.1,1.82,1.66,3.87,1.66,6.14s-.54,4.34-1.63,6.19c-1.09,1.86-2.58,3.32-4.46,4.39-1.89,1.07-4.02,1.61-6.38,1.61ZM349.68,61.59c1.18,0,2.23-.27,3.14-.82.91-.54,1.62-1.28,2.11-2.21.5-.93.74-2,.74-3.22s-.26-2.29-.79-3.22c-.53-.93-1.23-1.66-2.11-2.18-.88-.53-1.91-.79-3.1-.79s-2.18.26-3.07.79c-.9.53-1.59,1.26-2.09,2.18-.5.93-.74,2-.74,3.22s.25,2.29.74,3.22c.5.93,1.19,1.66,2.09,2.21.9.54,1.92.82,3.07.82Z"/>
        <path class="cls-2" d="M371.76,66.97l-8.64-23.18h6.34l5.62,16.85-1.87.05,5.81-16.9h4.51l5.86,16.9-1.87-.05,5.62-16.85h6.34l-8.64,23.18h-4.56l-5.81-15.98h1.78l-5.9,15.98h-4.56Z"/>
        <path class="cls-2" d="M409.97,67.5c-1.34,0-2.65-.17-3.91-.5-1.26-.34-2.42-.83-3.48-1.49-1.06-.66-1.97-1.43-2.74-2.33l3.79-3.79c.77.93,1.68,1.62,2.74,2.06,1.06.45,2.21.67,3.46.67,1.02,0,1.81-.15,2.35-.46.54-.3.82-.73.82-1.27,0-.64-.29-1.13-.86-1.46s-1.3-.63-2.18-.89c-.88-.26-1.82-.53-2.81-.82s-1.93-.68-2.81-1.18c-.88-.5-1.61-1.19-2.18-2.09-.58-.9-.86-2.05-.86-3.46s.37-2.76,1.1-3.86,1.78-1.95,3.12-2.54c1.34-.59,2.93-.89,4.75-.89,1.92,0,3.66.33,5.21.98,1.55.66,2.84,1.66,3.86,3l-3.79,3.84c-.7-.83-1.5-1.45-2.38-1.85-.88-.4-1.82-.6-2.81-.6s-1.68.14-2.16.43c-.48.29-.72.69-.72,1.2,0,.58.27,1.02.82,1.32.54.3,1.26.58,2.16.84.9.26,1.83.54,2.81.84.98.3,1.9.73,2.78,1.27.88.54,1.6,1.26,2.16,2.16.56.9.84,2.05.84,3.46,0,2.27-.82,4.07-2.45,5.4-1.63,1.33-3.84,1.99-6.62,1.99Z"/>
        <path class="cls-2" d="M434.11,67.5c-2.34,0-4.44-.54-6.31-1.61-1.87-1.07-3.35-2.53-4.44-4.37-1.09-1.84-1.63-3.91-1.63-6.22s.54-4.31,1.63-6.12c1.09-1.81,2.57-3.25,4.44-4.32,1.87-1.07,3.98-1.61,6.31-1.61s4.49.53,6.36,1.58,3.36,2.5,4.46,4.32c1.1,1.82,1.66,3.87,1.66,6.14s-.54,4.34-1.63,6.19c-1.09,1.86-2.58,3.32-4.46,4.39-1.89,1.07-4.02,1.61-6.38,1.61ZM434.11,61.59c1.18,0,2.23-.27,3.14-.82.91-.54,1.62-1.28,2.11-2.21.5-.93.74-2,.74-3.22s-.26-2.29-.79-3.22c-.53-.93-1.23-1.66-2.11-2.18-.88-.53-1.91-.79-3.1-.79s-2.18.26-3.07.79c-.9.53-1.59,1.26-2.09,2.18-.5.93-.74,2-.74,3.22s.25,2.29.74,3.22c.5.93,1.19,1.66,2.09,2.21.9.54,1.92.82,3.07.82Z"/>
        <path class="cls-2" d="M471.31,47.89c-.77-1.36-1.82-2.46-3.14-3.31-1.33-.85-2.86-1.27-4.58-1.27s-3.34.38-4.73,1.15c-.76.42-1.42.93-1.99,1.52v-2.19h-6.29v23.18h6.29v-13.3c0-.9.2-1.7.6-2.42.4-.72.95-1.27,1.66-1.66.7-.38,1.5-.58,2.4-.58,1.34,0,2.45.43,3.31,1.3.86.86,1.3,1.98,1.3,3.36v13.3h6.34v-14.74c0-1.54-.38-2.98-1.15-4.34Z"/>
        <path class="cls-1" d="M515.81,43.86c-.83-2-2.01-3.74-3.53-5.23-1.52-1.49-3.3-2.64-5.33-3.46-2.03-.82-4.25-1.22-6.65-1.22h-12v33.02h12.1c2.37,0,4.57-.42,6.6-1.25,2.03-.83,3.8-1.99,5.3-3.48s2.67-3.24,3.5-5.26,1.25-4.19,1.25-6.53-.42-4.6-1.25-6.6ZM511.71,57.3c-1.1,2-2.65,3.57-4.63,4.7-1.98,1.14-4.27,1.7-6.86,1.7h-8.35v-26.5h8.35c2.56,0,4.83.56,6.82,1.68,1.98,1.12,3.54,2.68,4.66,4.68,1.12,2,1.68,4.28,1.68,6.84s-.55,4.89-1.66,6.89Z"/>
        <path class="cls-1" d="M533.38,67.45c-2.24,0-4.26-.51-6.05-1.54-1.79-1.02-3.21-2.43-4.25-4.22-1.04-1.79-1.56-3.81-1.56-6.05s.5-4.2,1.51-5.98c1.01-1.78,2.39-3.18,4.15-4.2,1.76-1.02,3.73-1.54,5.9-1.54s3.91.46,5.5,1.39c1.58.93,2.83,2.22,3.74,3.86.91,1.65,1.37,3.54,1.37,5.69,0,.26-.02.55-.05.89-.03.34-.1.73-.19,1.18h-19.54v-2.88h17.66l-1.2,1.06c.03-1.63-.25-3.05-.84-4.25-.59-1.2-1.44-2.14-2.54-2.81-1.1-.67-2.42-1.01-3.96-1.01-1.63,0-3.06.36-4.27,1.08-1.22.72-2.17,1.71-2.86,2.98s-1.03,2.74-1.03,4.44.36,3.25,1.08,4.56c.72,1.31,1.73,2.34,3.02,3.07,1.3.74,2.79,1.1,4.49,1.1,1.34,0,2.59-.25,3.74-.74,1.15-.5,2.13-1.24,2.93-2.23l2.21,2.21c-1.06,1.28-2.37,2.26-3.94,2.93-1.57.67-3.25,1.01-5.04,1.01Z"/>
        <path class="cls-1" d="M555.75,67.45c-1.22,0-2.38-.17-3.5-.5-1.12-.34-2.14-.81-3.05-1.42-.91-.61-1.72-1.33-2.42-2.16l2.21-2.21c.9,1.09,1.91,1.9,3.05,2.42,1.14.53,2.41.79,3.82.79s2.63-.29,3.48-.86c.85-.58,1.27-1.38,1.27-2.4,0-.96-.3-1.7-.89-2.23-.59-.53-1.37-.96-2.33-1.3-.96-.34-1.97-.66-3.02-.96-1.06-.3-2.06-.69-3-1.15-.94-.46-1.72-1.1-2.33-1.92s-.91-1.91-.91-3.29c0-1.28.32-2.39.96-3.34.64-.94,1.54-1.68,2.69-2.21s2.54-.79,4.18-.79,3.23.3,4.61.91c1.38.61,2.48,1.5,3.31,2.69l-2.21,2.21c-.64-.86-1.46-1.54-2.47-2.02s-2.14-.72-3.38-.72c-1.44,0-2.54.28-3.29.84-.75.56-1.13,1.29-1.13,2.18s.3,1.54.91,2.04c.61.5,1.38.9,2.33,1.2.94.3,1.94.61,3,.91,1.06.3,2.06.7,3.02,1.2s1.74,1.17,2.33,2.02c.59.85.89,1.99.89,3.43,0,2.02-.73,3.62-2.18,4.82-1.46,1.2-3.43,1.8-5.93,1.8Z"/>
        <path class="cls-1" d="M570.86,39.56c-.64,0-1.18-.24-1.63-.72-.45-.48-.67-1.04-.67-1.68s.22-1.23.67-1.68c.45-.45.99-.67,1.63-.67.7,0,1.27.22,1.7.67.43.45.65,1.01.65,1.68s-.22,1.2-.65,1.68-1,.72-1.7.72ZM569.19,66.97v-22.56h3.41v22.56h-3.41Z"/>
        <path class="cls-1" d="M597.17,44.41v3.7c-.07-.1-.12-.22-.19-.32-.86-1.23-1.98-2.18-3.36-2.86-1.38-.67-2.94-1.01-4.7-1.01-2.08,0-3.95.5-5.62,1.49-1.66.99-2.98,2.34-3.94,4.06-.96,1.71-1.44,3.66-1.44,5.83s.48,4.13,1.44,5.86,2.27,3.09,3.94,4.08c1.66.99,3.55,1.49,5.66,1.49,1.73,0,3.27-.34,4.63-1.03,1.36-.69,2.47-1.65,3.34-2.88.09-.13.16-.26.24-.39v3.63c0,2.37-.75,4.24-2.26,5.62-1.5,1.38-3.55,2.06-6.14,2.06-1.82,0-3.42-.34-4.8-1.01-1.38-.67-2.51-1.62-3.41-2.83l-2.21,2.21c1.09,1.54,2.52,2.73,4.3,3.58,1.78.85,3.8,1.27,6.07,1.27s4.4-.46,6.19-1.37c1.79-.91,3.18-2.18,4.18-3.82.99-1.63,1.49-3.54,1.49-5.71v-21.65h-3.41ZM596.4,59.65c-.64,1.23-1.55,2.18-2.74,2.86-1.18.67-2.54,1.01-4.08,1.01s-3.01-.34-4.22-1.03c-1.22-.69-2.18-1.66-2.88-2.9-.71-1.25-1.06-2.67-1.06-4.27s.34-3.02,1.03-4.25c.69-1.23,1.65-2.19,2.88-2.88,1.23-.69,2.63-1.03,4.2-1.03s2.94.34,4.1,1.03c1.17.69,2.08,1.65,2.74,2.88.66,1.23.98,2.65.98,4.25s-.32,3.11-.96,4.34Z"/>
        <path class="cls-1" d="M626.04,48.54c-.75-1.41-1.8-2.53-3.14-3.36-1.34-.83-2.88-1.25-4.61-1.25s-3.28.38-4.66,1.15c-1.2.67-2.17,1.57-2.93,2.68v-3.35h-3.41v22.56h3.41v-13.3c0-1.28.29-2.42.86-3.41.58-.99,1.36-1.77,2.35-2.33.99-.56,2.13-.84,3.41-.84,1.92,0,3.47.62,4.66,1.85,1.18,1.23,1.78,2.82,1.78,4.78v13.25h3.41v-13.82c0-1.66-.38-3.2-1.13-4.61Z"/>
      </g>
      <path class="cls-2" d="M82,76.22V0l-41,45.04c-4.35,4.1-8.65,7.96-11.58,12.5-1.78,2.65-1.73,5.53.31,7.87,2.3,2.35,5.42,3.22,8.91,4.25,2.79.82,5.6,1.57,8.42,2.26l-16.33,6.34c-1.73-1.24-3.32-2.47-4.63-3.64-6.38-5.71-7.42-14.78-.64-20.56,4.8-4.15,10.01-6.41,15.28-9.3L0,0v90.08h51.44c-2.74-1.11-7.87-3.74-13.07-6.85l22.24-8.64c6.98,1.06,14.09,1.64,21.39,1.64ZM37.08,82.44c-.29-.18-.58-.36-.87-.54l20.5-7.96c.52.09,1.05.18,1.57.27l-21.19,8.23Z"/>
    </g>
  </g>
</svg>