<?xml version="1.0" encoding="UTF-8"?>
<svg id="Layer_2" xmlns="http://www.w3.org/2000/svg" viewBox="0 0 136.95 150.44">
  <defs>
    <style>
      .cls-1 {
        fill: #8493bf;
      }
    </style>
  </defs>
  <g id="Layer_1-2" data-name="Layer_1">
    <path class="cls-1" d="M136.95,127.3V0l-68.47,75.22c-7.27,6.85-14.44,13.3-19.34,20.87-2.98,4.43-2.89,9.23.51,13.14,3.84,3.93,9.06,5.38,14.88,7.09,4.67,1.37,9.35,2.63,14.06,3.77l-27.28,10.6c-2.9-2.07-5.54-4.13-7.73-6.09-10.65-9.54-12.4-24.69-1.07-34.34,8.02-6.93,16.72-10.7,25.52-15.53L0,0v150.44h85.91c-4.58-1.85-13.14-6.24-21.82-11.45l37.15-14.43c11.66,1.77,23.53,2.73,35.72,2.73ZM61.93,137.68c-.49-.3-.97-.6-1.46-.9l34.23-13.3c.87.16,1.75.3,2.62.45l-35.39,13.75Z"/>
  </g>
</svg>