<?xml version="1.0" encoding="UTF-8"?>
<svg id="Layer_2" xmlns="http://www.w3.org/2000/svg" viewBox="0 0 381.95 155.22">
  <defs>
    <style>
      .cls-1 {
        fill: #393b59;
      }

      .cls-2 {
        fill: #8493bf;
      }
    </style>
  </defs>
  <g id="Layer_1-2" data-name="Layer_1">
    <g>
      <path class="cls-2" d="M164.95,45.01V5.48h5.4l16.03,25.64h-3.09l15.97-25.64h5.4v39.53h-7.65v-26.37l1.52.39-11.08,17.88h-5.29l-11.02-17.88,1.46-.39v26.37h-7.65Z"/>
      <path class="cls-2" d="M223.26,45.57c-2.47,0-4.7-.62-6.66-1.86-1.97-1.24-3.51-2.92-4.64-5.06-1.12-2.14-1.69-4.54-1.69-7.2s.56-5.12,1.69-7.25c1.12-2.14,2.67-3.82,4.64-5.06,1.97-1.24,4.21-1.86,6.72-1.86,1.91,0,3.64.39,5.17,1.18,1.54.79,2.77,1.88,3.71,3.26.94,1.39,1.44,2.98,1.52,4.78v9.84c-.08,1.76-.57,3.35-1.49,4.75-.92,1.41-2.16,2.5-3.71,3.29-1.56.79-3.31,1.18-5.26,1.18ZM224.67,38.77c2.06,0,3.73-.69,5-2.08,1.27-1.39,1.91-3.13,1.91-5.23,0-1.42-.3-2.7-.9-3.82-.6-1.12-1.41-2-2.42-2.61-1.01-.62-2.21-.93-3.6-.93s-2.54.32-3.57.96c-1.03.64-1.84,1.5-2.42,2.59-.58,1.09-.87,2.34-.87,3.77s.29,2.74.87,3.82c.58,1.09,1.4,1.95,2.45,2.59,1.05.64,2.23.96,3.54.96ZM231.14,45.01v-7.31l1.24-6.64-1.24-6.58v-6.64h7.42v27.16h-7.42Z"/>
      <path class="cls-2" d="M244.97,45.01v-27.16h7.37v27.16h-7.37ZM252.34,30.05l-2.87-1.97c.34-3.34,1.31-5.97,2.92-7.9,1.61-1.93,3.94-2.9,6.97-2.9,1.35,0,2.54.22,3.57.65s1.98,1.13,2.84,2.11l-4.61,5.34c-.41-.49-.91-.83-1.49-1.04s-1.25-.31-2-.31c-1.57,0-2.86.49-3.85,1.46-.99.98-1.49,2.49-1.49,4.55Z"/>
      <path class="cls-2" d="M272.07,13.46c-1.2,0-2.19-.4-2.98-1.21-.79-.81-1.18-1.81-1.18-3.01s.39-2.15,1.18-2.98c.79-.82,1.78-1.24,2.98-1.24s2.24.41,3.01,1.24c.77.83,1.15,1.82,1.15,2.98s-.38,2.2-1.15,3.01c-.77.81-1.77,1.21-3.01,1.21ZM268.3,45.01v-27.16h7.48v27.16h-7.48Z"/>
      <path class="cls-2" d="M291.7,45.63c-1.57,0-3.1-.2-4.58-.59-1.48-.39-2.84-.97-4.08-1.74-1.24-.77-2.31-1.68-3.21-2.73l4.44-4.44c.9,1.09,1.97,1.89,3.21,2.42,1.24.53,2.59.79,4.05.79,1.2,0,2.12-.18,2.76-.53.64-.36.96-.85.96-1.49,0-.75-.34-1.32-1.01-1.72s-1.53-.74-2.56-1.04c-1.03-.3-2.13-.62-3.29-.96-1.16-.34-2.26-.8-3.29-1.38-1.03-.58-1.88-1.4-2.56-2.45s-1.01-2.4-1.01-4.05.43-3.23,1.29-4.53c.86-1.29,2.08-2.29,3.66-2.98,1.57-.69,3.43-1.04,5.57-1.04,2.25,0,4.28.38,6.1,1.15s3.33,1.94,4.53,3.51l-4.44,4.5c-.82-.97-1.75-1.7-2.78-2.17-1.03-.47-2.13-.7-3.29-.7s-1.97.17-2.53.51c-.56.34-.84.81-.84,1.41,0,.67.32,1.19.96,1.55.64.36,1.48.68,2.53.98,1.05.3,2.15.63,3.29.98,1.14.36,2.23.85,3.26,1.49,1.03.64,1.87,1.48,2.53,2.53.66,1.05.98,2.4.98,4.05,0,2.66-.96,4.77-2.87,6.33-1.91,1.56-4.5,2.33-7.76,2.33Z"/>
      <path class="cls-2" d="M316.67,45.63c-1.57,0-3.1-.2-4.58-.59-1.48-.39-2.84-.97-4.08-1.74-1.24-.77-2.31-1.68-3.21-2.73l4.44-4.44c.9,1.09,1.97,1.89,3.21,2.42,1.24.53,2.59.79,4.05.79,1.2,0,2.12-.18,2.76-.53.64-.36.96-.85.96-1.49,0-.75-.34-1.32-1.01-1.72s-1.53-.74-2.56-1.04c-1.03-.3-2.13-.62-3.29-.96-1.16-.34-2.26-.8-3.29-1.38-1.03-.58-1.88-1.4-2.56-2.45s-1.01-2.4-1.01-4.05.43-3.23,1.29-4.53c.86-1.29,2.08-2.29,3.66-2.98,1.57-.69,3.43-1.04,5.57-1.04,2.25,0,4.28.38,6.1,1.15s3.33,1.94,4.53,3.51l-4.44,4.5c-.82-.97-1.75-1.7-2.78-2.17-1.03-.47-2.13-.7-3.29-.7s-1.97.17-2.53.51c-.56.34-.84.81-.84,1.41,0,.67.32,1.19.96,1.55.64.36,1.48.68,2.53.98,1.05.3,2.15.63,3.29.98,1.14.36,2.23.85,3.26,1.49,1.03.64,1.87,1.48,2.53,2.53.66,1.05.98,2.4.98,4.05,0,2.66-.96,4.77-2.87,6.33-1.91,1.56-4.5,2.33-7.76,2.33Z"/>
      <path class="cls-2" d="M343.54,45.57c-2.47,0-4.7-.62-6.66-1.86-1.97-1.24-3.51-2.92-4.64-5.06-1.12-2.14-1.69-4.54-1.69-7.2s.56-5.12,1.69-7.25c1.12-2.14,2.67-3.82,4.64-5.06,1.97-1.24,4.21-1.86,6.72-1.86,1.91,0,3.64.39,5.17,1.18,1.54.79,2.77,1.88,3.71,3.26.94,1.39,1.44,2.98,1.52,4.78v9.84c-.08,1.76-.57,3.35-1.49,4.75-.92,1.41-2.16,2.5-3.71,3.29-1.56.79-3.31,1.18-5.26,1.18ZM344.95,38.77c2.06,0,3.73-.69,5-2.08,1.27-1.39,1.91-3.13,1.91-5.23,0-1.42-.3-2.7-.9-3.82-.6-1.12-1.41-2-2.42-2.61-1.01-.62-2.21-.93-3.6-.93s-2.54.32-3.57.96c-1.03.64-1.84,1.5-2.42,2.59-.58,1.09-.87,2.34-.87,3.77s.29,2.74.87,3.82c.58,1.09,1.4,1.95,2.45,2.59,1.05.64,2.23.96,3.54.96ZM351.42,45.01v-7.31l1.24-6.64-1.24-6.58v-6.64h7.42v27.16h-7.42Z"/>
      <path class="cls-2" d="M183.34,101.86c-2.92,0-5.62-.53-8.1-1.57-2.47-1.05-4.64-2.5-6.49-4.36s-3.29-4.02-4.3-6.5c-1.01-2.47-1.52-5.14-1.52-7.99s.51-5.51,1.52-7.98c1.01-2.47,2.44-4.63,4.27-6.47,1.84-1.84,3.99-3.28,6.47-4.33,2.47-1.05,5.15-1.57,8.04-1.57,3.22,0,6.03.52,8.41,1.55,2.38,1.03,4.49,2.43,6.33,4.19l-5.23,5.23c-1.09-1.2-2.42-2.14-3.99-2.81s-3.41-1.01-5.51-1.01c-1.8,0-3.46.31-4.98.93-1.52.62-2.84,1.52-3.96,2.7-1.12,1.18-1.99,2.59-2.59,4.22-.6,1.63-.9,3.42-.9,5.37s.3,3.8.9,5.43c.6,1.63,1.46,3.03,2.59,4.19,1.12,1.16,2.45,2.06,3.96,2.7s3.2.96,5.03.96c2.21,0,4.1-.35,5.68-1.04,1.58-.69,2.92-1.64,4.05-2.84l5.23,5.23c-1.88,1.8-4.04,3.22-6.49,4.25-2.46,1.03-5.26,1.55-8.41,1.55Z"/>
      <path class="cls-2" d="M202.74,101.24v-27.16h7.37v27.16h-7.37ZM210.1,86.28l-2.87-1.97c.34-3.34,1.31-5.97,2.92-7.9,1.61-1.93,3.94-2.9,6.97-2.9,1.35,0,2.54.22,3.57.65s1.98,1.13,2.84,2.11l-4.61,5.34c-.41-.49-.91-.83-1.49-1.04s-1.25-.31-2-.31c-1.57,0-2.86.49-3.85,1.46-.99.98-1.49,2.49-1.49,4.55Z"/>
      <path class="cls-2" d="M238.11,101.86c-2.74,0-5.2-.63-7.39-1.88-2.19-1.25-3.93-2.96-5.2-5.12-1.28-2.16-1.91-4.58-1.91-7.28s.64-5.05,1.91-7.17c1.27-2.12,3.01-3.8,5.2-5.06,2.19-1.26,4.66-1.88,7.39-1.88s5.26.62,7.45,1.86,3.94,2.92,5.23,5.06,1.94,4.54,1.94,7.2-.64,5.08-1.91,7.25c-1.28,2.17-3.02,3.89-5.23,5.14-2.21,1.26-4.71,1.88-7.48,1.88ZM238.11,94.94c1.39,0,2.62-.32,3.68-.96,1.07-.64,1.89-1.5,2.47-2.59.58-1.09.87-2.34.87-3.77s-.31-2.68-.93-3.77c-.62-1.09-1.44-1.94-2.47-2.56-1.03-.62-2.24-.93-3.63-.93s-2.55.31-3.6.93c-1.05.62-1.87,1.47-2.45,2.56-.58,1.09-.87,2.34-.87,3.77s.29,2.68.87,3.77c.58,1.09,1.4,1.95,2.45,2.59,1.05.64,2.25.96,3.6.96Z"/>
      <path class="cls-2" d="M263.97,101.24l-10.12-27.16h7.42l6.58,19.74-2.19.06,6.8-19.79h5.29l6.86,19.79-2.19-.06,6.58-19.74h7.42l-10.12,27.16h-5.34l-6.8-18.73h2.08l-6.92,18.73h-5.34Z"/>
      <path class="cls-2" d="M308.74,101.86c-1.57,0-3.1-.2-4.58-.59-1.48-.39-2.84-.97-4.08-1.74-1.24-.77-2.31-1.68-3.21-2.73l4.44-4.44c.9,1.09,1.97,1.89,3.21,2.42,1.24.53,2.59.79,4.05.79,1.2,0,2.12-.18,2.76-.53.64-.36.96-.85.96-1.49,0-.75-.34-1.32-1.01-1.71s-1.53-.74-2.56-1.04-2.13-.62-3.29-.96c-1.16-.34-2.26-.8-3.29-1.38-1.03-.58-1.88-1.4-2.56-2.45-.67-1.05-1.01-2.4-1.01-4.05s.43-3.23,1.29-4.53c.86-1.29,2.08-2.29,3.66-2.98,1.57-.69,3.43-1.04,5.57-1.04,2.25,0,4.28.38,6.1,1.15s3.33,1.94,4.53,3.51l-4.44,4.5c-.82-.97-1.75-1.7-2.78-2.17-1.03-.47-2.13-.7-3.29-.7s-1.97.17-2.53.51c-.56.34-.84.81-.84,1.41,0,.67.32,1.19.96,1.55.64.36,1.48.68,2.53.98,1.05.3,2.15.63,3.29.98s2.23.85,3.26,1.49c1.03.64,1.87,1.48,2.53,2.53.66,1.05.98,2.4.98,4.05,0,2.66-.96,4.77-2.87,6.33s-4.5,2.33-7.76,2.33Z"/>
      <path class="cls-2" d="M337.02,101.86c-2.74,0-5.2-.63-7.39-1.88-2.19-1.25-3.93-2.96-5.2-5.12-1.28-2.16-1.91-4.58-1.91-7.28s.64-5.05,1.91-7.17c1.27-2.12,3.01-3.8,5.2-5.06,2.19-1.26,4.66-1.88,7.39-1.88s5.26.62,7.45,1.86,3.94,2.92,5.23,5.06,1.94,4.54,1.94,7.2-.64,5.08-1.91,7.25c-1.28,2.17-3.02,3.89-5.23,5.14-2.21,1.26-4.71,1.88-7.48,1.88ZM337.02,94.94c1.39,0,2.62-.32,3.68-.96,1.07-.64,1.89-1.5,2.47-2.59.58-1.09.87-2.34.87-3.77s-.31-2.68-.93-3.77c-.62-1.09-1.44-1.94-2.47-2.56-1.03-.62-2.24-.93-3.63-.93s-2.55.31-3.6.93c-1.05.62-1.87,1.47-2.45,2.56-.58,1.09-.87,2.34-.87,3.77s.29,2.68.87,3.77c.58,1.09,1.4,1.95,2.45,2.59,1.05.64,2.25.96,3.6.96Z"/>
      <path class="cls-2" d="M356.31,101.24v-27.16h7.37v27.16h-7.37ZM374.53,101.24v-15.58c0-1.61-.51-2.92-1.52-3.94-1.01-1.01-2.31-1.52-3.88-1.52-1.05,0-1.99.22-2.81.67-.83.45-1.47,1.1-1.94,1.94-.47.84-.7,1.79-.7,2.84l-2.87-1.52c0-2.1.46-3.94,1.38-5.54.92-1.59,2.19-2.84,3.82-3.74,1.63-.9,3.48-1.35,5.54-1.35s3.81.5,5.37,1.49c1.55.99,2.78,2.29,3.68,3.88.9,1.59,1.35,3.29,1.35,5.09v17.26h-7.42Z"/>
      <path class="cls-1" d="M164.24,147.25v-26.38h2.84v26.38h-2.84ZM166,147.25v-2.61h7.74c2.07,0,3.9-.45,5.48-1.36s2.82-2.16,3.7-3.76c.88-1.6,1.32-3.43,1.32-5.5s-.45-3.87-1.34-5.46-2.13-2.84-3.72-3.74-3.4-1.34-5.44-1.34h-7.67v-2.61h7.75c1.92,0,3.69.33,5.31.98s3.04,1.57,4.26,2.76,2.15,2.58,2.82,4.18c.66,1.6,1,3.35,1,5.27s-.33,3.6-1,5.21c-.67,1.61-1.6,3.01-2.8,4.2-1.2,1.19-2.61,2.12-4.24,2.78-1.62.67-3.38,1-5.27,1h-7.9Z"/>
      <path class="cls-1" d="M200.24,147.63c-1.79,0-3.4-.41-4.83-1.23-1.43-.82-2.56-1.94-3.39-3.37-.83-1.43-1.25-3.04-1.25-4.83s.4-3.36,1.21-4.77c.81-1.42,1.91-2.54,3.32-3.36,1.41-.82,2.98-1.23,4.72-1.23s3.12.37,4.39,1.11c1.27.74,2.26,1.77,2.99,3.09s1.09,2.83,1.09,4.54c0,.21-.01.44-.04.71s-.08.58-.15.94h-15.6v-2.3h14.11l-.96.84c.03-1.3-.2-2.43-.67-3.39-.47-.96-1.15-1.71-2.03-2.24-.88-.54-1.94-.8-3.16-.8-1.3,0-2.44.29-3.41.86-.97.58-1.73,1.37-2.28,2.38-.55,1.01-.82,2.19-.82,3.55s.29,2.59.86,3.64,1.38,1.87,2.42,2.45c1.04.59,2.23.88,3.58.88,1.07,0,2.07-.2,2.99-.59.92-.4,1.7-.99,2.34-1.78l1.76,1.76c-.84,1.02-1.89,1.8-3.14,2.34-1.25.54-2.59.81-4.03.81Z"/>
      <path class="cls-1" d="M218.11,147.63c-.97,0-1.9-.13-2.8-.4-.9-.27-1.71-.64-2.43-1.13-.73-.49-1.37-1.06-1.94-1.73l1.76-1.76c.72.87,1.53,1.51,2.43,1.94s1.92.63,3.05.63,2.1-.23,2.78-.69c.68-.46,1.02-1.1,1.02-1.92,0-.77-.24-1.36-.71-1.78-.47-.42-1.09-.77-1.86-1.04-.77-.27-1.57-.52-2.42-.77-.84-.24-1.64-.55-2.4-.92-.75-.37-1.38-.88-1.86-1.53-.49-.65-.73-1.53-.73-2.63,0-1.02.25-1.91.77-2.66.51-.75,1.23-1.34,2.15-1.76.92-.42,2.03-.63,3.34-.63s2.58.24,3.68.73c1.1.49,1.98,1.2,2.65,2.15l-1.76,1.76c-.51-.69-1.17-1.23-1.97-1.61-.8-.38-1.71-.58-2.7-.58-1.15,0-2.03.22-2.63.67s-.9,1.03-.9,1.74.24,1.23.73,1.63,1.11.72,1.86.96c.75.24,1.55.49,2.4.73.84.24,1.65.56,2.42.96.77.4,1.39.93,1.86,1.61.47.68.71,1.59.71,2.74,0,1.61-.58,2.89-1.74,3.85-1.16.96-2.74,1.44-4.74,1.44Z"/>
      <path class="cls-1" d="M230.18,125.35c-.51,0-.95-.19-1.3-.58-.36-.38-.54-.83-.54-1.34s.18-.98.54-1.34.79-.54,1.3-.54c.56,0,1.02.18,1.36.54.35.36.52.81.52,1.34s-.17.96-.52,1.34c-.34.38-.8.58-1.36.58ZM228.84,147.25v-18.02h2.72v18.02h-2.72Z"/>
      <path class="cls-1" d="M244.64,147.06c-1.69,0-3.2-.4-4.52-1.19-1.33-.79-2.38-1.88-3.14-3.26-.77-1.38-1.15-2.94-1.15-4.68s.38-3.29,1.15-4.66,1.81-2.45,3.14-3.24c1.33-.79,2.82-1.19,4.49-1.19,1.41,0,2.66.27,3.76.8,1.1.54,1.99,1.3,2.68,2.28.69.98,1.1,2.14,1.23,3.47v5.1c-.15,1.3-.58,2.45-1.26,3.43-.69.98-1.58,1.75-2.67,2.3-1.09.55-2.32.82-3.7.82ZM244.44,155.22c-1.82,0-3.43-.34-4.85-1.02-1.42-.68-2.56-1.63-3.43-2.86l1.76-1.76c.71.97,1.62,1.73,2.72,2.26,1.1.54,2.38.81,3.83.81,2.07,0,3.71-.55,4.91-1.65,1.2-1.1,1.8-2.59,1.8-4.49v-4.49l.54-4.1-.54-4.06v-4.64h2.72v17.29c0,1.74-.4,3.26-1.19,4.56s-1.9,2.32-3.33,3.05c-1.43.73-3.08,1.09-4.95,1.09ZM245.14,144.49c1.23,0,2.31-.27,3.26-.8.95-.54,1.67-1.3,2.19-2.28.51-.98.77-2.14.77-3.47s-.26-2.41-.79-3.39c-.52-.98-1.25-1.75-2.19-2.3-.93-.55-2.03-.83-3.28-.83s-2.37.28-3.35.83c-.98.55-1.75,1.32-2.3,2.3-.55.98-.83,2.12-.83,3.39s.28,2.42.84,3.41,1.33,1.77,2.3,2.32c.97.55,2.1.82,3.37.82Z"/>
      <path class="cls-1" d="M259.28,147.25v-18.02h2.72v18.02h-2.72ZM272.43,147.25v-10.58c0-1.56-.47-2.83-1.42-3.81-.95-.98-2.19-1.48-3.72-1.48-1.02,0-1.93.22-2.72.67-.79.45-1.42,1.07-1.88,1.86-.46.79-.69,1.7-.69,2.72l-1.23-.69c0-1.35.32-2.57.96-3.64.64-1.07,1.51-1.92,2.61-2.53,1.1-.61,2.34-.92,3.72-.92s2.61.33,3.68,1,1.91,1.56,2.51,2.68c.6,1.12.9,2.35.9,3.68v11.04h-2.72Z"/>
    </g>
    <path class="cls-2" d="M136.95,127.3V0l-68.47,75.22c-7.27,6.85-14.44,13.3-19.34,20.87-2.98,4.43-2.89,9.23.51,13.14,3.84,3.93,9.06,5.38,14.88,7.09,4.67,1.37,9.35,2.63,14.06,3.77l-27.28,10.6c-2.9-2.07-5.54-4.13-7.73-6.09-10.65-9.54-12.4-24.69-1.07-34.34,8.02-6.93,16.72-10.7,25.52-15.53L0,0v150.44h85.91c-4.58-1.85-13.14-6.24-21.82-11.45l37.15-14.43c11.66,1.77,23.53,2.73,35.72,2.73ZM61.93,137.68c-.49-.3-.97-.6-1.46-.9l34.23-13.3c.87.16,1.75.3,2.62.45l-35.39,13.75Z"/>
  </g>
</svg>